<?xml version="1.0" standalone="no"?>
<!DOCTYPE svg PUBLIC "-//W3C//DTD SVG 20010904//EN"
 "http://www.w3.org/TR/2001/REC-SVG-20010904/DTD/svg10.dtd">
<svg version="1.0" xmlns="http://www.w3.org/2000/svg"
 width="1024.000000pt" height="768.000000pt" viewBox="0 0 1024.000000 768.000000"
 preserveAspectRatio="xMidYMid meet">
<metadata>
Created by potrace 1.16, written by Peter Selinger 2001-2019
</metadata>
<g transform="translate(0.000000,768.000000) scale(0.100000,-0.100000)"
fill="#000000" stroke="none">
<path d="M1314 6336 l-34 -34 0 -2462 0 -2462 34 -34 34 -34 3762 0 3762 0 34
34 34 34 -2 2466 -3 2466 -28 27 -27 28 -3766 3 -3766 2 -34 -34z m3378 -2448
l3 -153 93 3 92 4 0 -31 0 -31 -120 0 -120 0 0 180 0 180 25 0 24 0 3 -152z
m398 66 c61 -98 50 -100 123 18 38 61 45 68 75 68 17 0 32 -3 32 -6 0 -10
-169 -264 -175 -264 -2 0 -29 37 -60 82 l-55 83 0 -128 0 -127 -30 0 -30 0 0
180 0 180 33 0 c30 0 36 -7 87 -86z m360 -40 l0 -126 30 -28 c36 -33 42 -80
10 -80 -30 0 -88 57 -100 98 -5 20 -10 88 -10 150 l0 112 35 0 35 0 0 -126z
m230 -6 c0 -114 -3 -138 -20 -165 -18 -30 -65 -63 -90 -63 -22 0 -10 54 18 76
27 22 27 24 30 153 l4 131 29 0 29 0 0 -132z m126 105 c3 -16 10 -44 15 -63 5
-19 18 -80 29 -135 11 -55 23 -108 26 -117 4 -15 -1 -18 -29 -18 l-34 0 -32
158 c-18 86 -35 167 -38 180 -4 19 -1 22 26 22 25 0 32 -5 37 -27z m634 -3 l0
-30 -135 0 -135 0 0 30 0 30 135 0 135 0 0 -30z m-471 -147 c23 -89 41 -167
41 -173 0 -5 -13 -10 -29 -10 -28 0 -30 3 -47 72 -9 40 -19 67 -22 60 -8 -26
-20 -10 -27 38 -5 38 -2 65 15 115 12 37 24 65 25 63 2 -2 22 -76 44 -165z
m-639 -53 l0 -130 -35 0 -35 0 0 86 c0 79 2 89 30 130 17 24 33 44 35 44 3 0
5 -58 5 -130z m-1625 9 c11 -32 15 -34 61 -37 l50 -3 10 37 c9 39 34 59 34 27
0 -10 -12 -56 -25 -102 -14 -47 -25 -89 -25 -93 0 -4 14 -8 30 -8 25 0 30 4
30 25 0 36 23 87 64 141 42 55 49 34 9 -27 -33 -50 -53 -125 -46 -176 4 -28 1
-42 -11 -52 -9 -7 -16 -24 -16 -36 0 -12 -7 -29 -16 -36 -9 -7 -20 -23 -25
-36 -4 -12 -20 -30 -35 -39 -24 -16 -29 -16 -53 -3 -14 8 -31 25 -37 37 -6 12
-18 30 -27 40 -10 10 -17 28 -17 39 0 11 -7 26 -15 33 -10 9 -15 32 -15 74 0
60 -32 154 -59 170 -6 4 -11 17 -11 28 0 20 1 20 19 4 26 -24 68 -105 76 -148
6 -34 11 -38 36 -38 35 0 35 3 4 109 -14 47 -25 91 -25 99 0 25 23 6 35 -29z
m2733 -111 l3 -28 -135 0 -136 0 0 30 0 31 133 -3 132 -3 3 -27z"/>
</g>
</svg>
